<svg id="Layer_1" data-name="Layer 1" xmlns="http://www.w3.org/2000/svg" viewBox="0 0 1133.86 439.37"><defs><style>.cls-1{fill:#ec1a3b;}</style></defs><path class="cls-1" d="M83.78,190.28c29.46-54.5,80.35-114,140.45-133.81,12.34-3.07,28.75-6.54,39.7,1.9,9.73,7.22,11,19.55,8.84,30.66-2.89,13.13-11.9,29.77-26.95,31.89a8.91,8.91,0,0,1-6.76-2.87c-3.92-3.81-3.63-9.37-2.8-14.38,2.48-10.42,12.14-21.5,23.25-23,1.91-1.22,1.1-3.52.56-5.15-1.48-2.31-3.23-4.07-5.94-4.63-12-1.4-21.16,6.16-30.4,12.5C188.67,111.64,163.2,147.87,141.8,184c-17.46,32.46-32.34,66-36.68,104-2.12,27.5,6.59,54.5,31.07,67.73,26.52,14,60.84,4.54,87.42-2.68L248,345.47,295,331.54c44.49-13,100.2-15.91,143.64,1.31,26.25,10.94,53.3,25.94,70.42,51.75,0,.67,0,1.49-.81,1.35-37.24-10.16-85.72-20.22-122.64-2.6l-1.76-.41c-11.19-17.93-30.12-27.89-49.49-31.75-62.58-6-114,23.59-172.89,31-29.82,2.74-61.8,1.82-82.59-21C46,328.38,49.9,270.53,65.48,231A330.73,330.73,0,0,1,83.78,190.28Z"/><path class="cls-1" d="M170.17,209.83c15.55-28.54,39.39-63.43,72.35-73.88,8.82-2,18.3-1.16,25,4.7,14.19,14.13,8.68,38.38,3.88,55a2.32,2.32,0,0,0,1.75,2.18c12.61-.36,22.79-6.29,31.9-14.93,19.59-21.89,40.56-50.54,72.39-47.18,6,1,11.78,4.38,14.87,9.94,8.08,16,.16,33.75-10.86,46-4.21,4.05-9.51,7.15-15.6,5.23-2.44-.82-4.46-3.27-5.4-5.71-2.27-11.25,4.28-21.67,13.37-27.6,2.59-2.56,10.44-.78,8.3-6.61-1.62-2.31-4.06-2.59-6.64-2.6C360.06,160.88,350,176.71,341,190a228,228,0,0,0-26.49,56.42c-1.65,7.18-3.71,16.52.47,23.18a12.58,12.58,0,0,0,13.53,4.65c15.34-6.05,28.8-18.33,40.49-31,26.81-32.15,41-71.95,76.91-98.12,11.14-7.68,26.88-13.59,40.27-6.5,2.16.82,3.92,3.68,6.63,2.6,2.17-2.16,3.68-6.76,8-5.66,9.9.17,21.28-.33,31.44.65l.67,1-2.86,6.9-55.69,113.1a7.47,7.47,0,0,0-.42,4.2c.95,1.63,3,1.5,4.47,1,8-4.58,14.28-13.09,19.86-20.26a136.25,136.25,0,0,0,12.81-21.23c1.5-2.16,3.27-4.86,6.25-4.45s7-.92,9.35,1.25c-3.56,9.48-9.15,18.13-14.06,27.06-15.12,23.25-34.86,50.29-62.67,57.24-4.61.53-10.3.91-13.81-2.49-5.41-4.08-5.65-10.59-7.13-16.42a2.07,2.07,0,0,0-2.3-.55c-11.83,10.67-24.06,21.33-40.72,19.24a18.48,18.48,0,0,1-12.3-9.94c-4.31-8.28-2.24-19-2.48-28.19-.4-1.09-1.75-.68-2.3-.28-18.08,17.83-37.65,33.88-61.65,38.41-11.12,1.31-20.73-2-28.16-9.86-17.94-23.5-3.74-54.35,5.69-77.22.41-1.08.28-2.58-1.07-2.85-6.51.52-12.75,1.58-19,2.51l-2.18,2.43c-14.6,27-30.41,55.73-56.64,75.83-10.86,7.82-27,13.19-39.72,6C153,289.32,151.79,273.05,153.47,258,156.65,241,162.8,225.11,170.17,209.83Zm41.47-1.35c-7.64,15.42-15.42,31-15.75,49.27.8,3.39,2.82,7.33,6.61,8.29,4.06,1.1,7.46-1.06,10.58-3.08,14.95-12.55,25.31-29.72,33.77-46.23.68-1.62,1.91-3.65,1-5.42a66,66,0,0,1-24.47-17.43l-1.49-.27c-1.36.26-1.91,1.62-2.85,2.56Zm23.29-31.36c.51,8.13,8.07,15.21,15.25,17.94,1.75.55,4.6,1.91,6.1-.25A70.39,70.39,0,0,0,262,178.3c1.39-7.45,2.5-17.47-4.66-22.38a10.23,10.23,0,0,0-8.67-.3C240.54,159.66,234.69,167.9,234.93,177.12Zm183.54,63.11c-2.06,6.77-5.2,14.07-3.06,21.53a6,6,0,0,0,3.78,3c6.1.15,10.19-5.39,14.13-9.71,17.84-24.74,31.48-51.38,43.77-78.45,2.05-5.68,5.32-10.95,5.21-17.33-.13-1.35-1.48-2.3-2.56-3-2.71-1.23-5.29.66-7.46,1.74-24,18.48-37,45-49,70.16Z"/><path class="cls-1" d="M534.3,170.7c5.32-10.55,9.83-21.51,16.51-31.51,2.72-3,6.92-2.83,10.58-3.22l26.69.36,1.08,1.09c-4.5,10.69-9.42,21.24-15,31.52-1.37,2.71-4.22,5.27-7.34,5.67-10.84.23-22.36.87-32.66-.12C533.07,173.41,534,171.92,534.3,170.7Z"/><path class="cls-1" d="M561.08,224.87c18.57-38.43,40.92-75.48,72.6-108.17,30.74-30.65,64-55.47,104.3-63.06,11-1.58,23.31-.59,31.69,6.89,1.62,1.36,3.51,2.72,5.82,1.92,28.9-11.56,69-15.62,98-1.16,16.77,8.2,32.73,18.68,48.82,28.77,2,1.09,1.07,3.25,0,4.47C913,104.8,905.26,115.34,897,126c-1,.94-2.44.53-3.39,0L851,96.72c-19.88-13.48-42.75-22.91-68.65-18.67-2.85,1.49-1.51,5-1.92,7.72.58,26.57-8.85,49.71-21.65,70.8-10.22,14.74-22.06,30.15-39.42,35.1-7.6,1.6-14.91-.73-19.5-6.84-12.67-19.29-1.48-42.83,7.8-60,10.63-18.66,27.09-36.22,44.89-49.71.41-.68,1.23-1.35.69-2.17-1.76-1.76-4.75-.69-6.91-.29-28.9,9.65-52,35.18-73.39,59.37-38.11,46.89-67,97.74-83.46,153.66-5.09,21-12,53.21,9.38,67.92,18.8,10.1,36.87-2.86,51-15,21.48-21.88,35.94-47.17,41.86-75.75,1-8.53,3.32-20.17-4.52-26-7-3.14-12.88,2.67-17.64,7.53-11,13.24-15.68,29.08-17.64,46.15C647,294.55,641.19,297.1,636,301a148,148,0,0,0-27.19,24.85c-1,.26-1.08-.82-1.35-1.36-1.11-31.45,10.09-58.38,27.39-82.58,13.74-15.94,31.4-29.57,52.8-24.48,9.34,2.47,15.54,12.39,17.27,21.2,3.42,29.56-9,55.4-22.37,79.47-21.52,33.81-55.52,68-98.6,63.9-16.53-1-31.94-12.44-38.93-27.64-16.29-32.45-5-74.15,5.92-105.55Zm146.55-56c.4,3.66,1.87,7.6,5.66,9,7.31,2.06,13.16-3.35,18.59-7.53,19.59-20.66,31.46-44.61,34.54-72.11,0-4.06,1.39-9.21-.91-12.74a6.73,6.73,0,0,0-4.74,1.34c-13.18,8.76-25.56,21.59-34.55,34.57C716.83,135.83,708.24,150.71,707.63,168.86Z"/><path class="cls-1" d="M735.09,260.83c15.66-20.67,36.47-43.23,62.77-44.9a20.24,20.24,0,0,1,16.5,8.46C825.55,241,816.13,262.2,812,279a2.53,2.53,0,0,0,1.75,3,28.28,28.28,0,0,0,16.41-2.38l2-2.57c18.89-53.87,47-103.91,80.34-151.63C933.38,97.82,960,69.32,991,56c7.33-2.55,17.91-5.63,24.93-.18,7.84,6.39,5.64,17.5,3.57,26-.84,7.58-9.24,8.36-14.8,10.11-.27-.14-.55,0-.82-.27.16-4.88,2.75-9.21,3.71-14,.28-2.58.7-4.74-.38-7.19-1.35-2.44-4.33-1.63-6.36-1C990.37,74.71,981.94,84,973.91,93.08,944,127.81,922.3,166.35,902.38,205.31c-6.55,13.53-13.38,26.93-18.71,41a1.82,1.82,0,0,0,.8,1.9c4.61-.12,7.34-4.85,10.87-7.28,26.38-23.9,47.75-51.33,67.49-79.18,4.21-2,9.09-2,14-2.39l.94.27c-.28,3.8-3.54,6.77-5.31,10.15-22.07,31.77-47.11,62.17-77.56,89.85l-22,18.08c-4.63,4.05-4.78,10.28-7.11,15.43-4.24,13.94-8.5,28.15-9.09,43.46.13,2.58,1.07,5,3.23,6.39,5.82,2.59,10.44-2.95,14.52-6.73,29.8-34.45,43-76.69,79.38-107.6,12-9.44,27.71-17.52,43.13-10.42,2.71,1,4.73,4.49,8,2.88,2.3-1.62,2.45-5.28,5.71-5.13,10.7-.1,22.09-.47,32.38.38,1,.82.27,2.17,0,3.12l-7.37,14.88-45.58,92c-2,4.19-4.77,8.66-4.52,13.4.67,2,2.84,2.18,4.6,1.78,8.56-4.72,14.82-12.55,20.4-20.53s10.09-16.09,15.4-24.07c2.85-1.34,6.78-.79,9.89-.37,1.89,1.77-.55,4.06-1,6.1-13.38,27.73-32,58-61.24,73.37-6.79,3.36-16.15,6.45-23.59,2.36-5.95-4.09-5.38-11.54-8.07-17.24-.54-.82-1.9-.69-2.57-.28-12.1,10.8-25.15,22.95-42.08,18.28-10.55-4.91-11.73-17.11-12.51-27.55-.54-.41-.26-1.22-.94-1.63l-1.35.54c-11.84,14.18-26.81,31.89-46.73,30.19-7.59-.57-14.2-7.91-16.48-14.69-7-22.12.43-46.35,5.39-67.6a3,3,0,0,0-2.43-2.59l-16.67.21-2.73,3.11c-12.28,24.08-25.77,47.34-47,67.46-11.15,9.86-24.87,18.08-40.16,13.55-12.72-5.47-16.06-19.3-16-32.31C702.38,315.07,717.11,287.34,735.09,260.83Zm4.36,73.61c.25,4.61,2.54,9.36,7.28,10.87,3.11,1.09,6.5-.25,9.22-1.6,15.62-11.6,24.9-29.46,33.35-45.69.83-1.62,1.51-4.19-.65-5.43a79,79,0,0,1-22.44-17.69,2.91,2.91,0,0,0-3.25-.42c-5.85,7.85-9.68,16.51-13.77,25.16C744.54,310.61,739.49,321.43,739.45,334.44Zm39.29-76c.51,8.27,7.13,16,14.7,18.76,1.49.54,4.2,1.23,5.29-.66,4.65-10.56,9-22.6,6.63-34.81A10.67,10.67,0,0,0,799,235c-3-.82-6.1.11-8.68,1.32C782.73,241.35,779,249.61,778.74,258.41ZM928.1,330.75c-.29,3.93-1.26,8.81,1.72,11.8a6.15,6.15,0,0,0,6.23,1.11c8-4.18,13.19-12.7,18.09-19.73,16.35-25.42,28.37-52.61,39.58-80.22.41-2.44,1.1-5.82-1.2-7.46-6.63-3.14-11.8,4.16-16.69,7.67-21.62,21.47-33.1,47.45-43.9,73.56Z"/><path class="cls-1" d="M959.7,128.67,974.12,110l2.18-1.89c41.74-.8,74.35-25.62,103.72-54.93-.15,3.93-1.92,7.58-3.29,11.1-19.26,45.33-66,85.15-116.57,85.79l-11.92-.18c-2.17-.55-.67-2.71-.12-3.79Z"/><path class="cls-1" d="M1012.34,367.94a9.73,9.73,0,1,1,9.76,10A9.69,9.69,0,0,1,1012.34,367.94Zm9.76,12a12,12,0,1,0-12.17-12A12,12,0,0,0,1022.1,379.94Zm-2.54-11.05H1022l3.64,6H1028l-3.93-6.08c2-.25,3.58-1.33,3.58-3.8,0-2.73-1.62-3.93-4.88-3.93h-5.26v13.81h2.09Zm0-1.78v-4.27h2.85c1.46,0,3,.31,3,2,0,2.13-1.58,2.25-3.36,2.25Z"/></svg>