<svg id="Layer_1" data-name="Layer 1" xmlns="http://www.w3.org/2000/svg" xmlns:xlink="http://www.w3.org/1999/xlink" viewBox="0 0 1133.86 439.37"><defs><style>.cls-1{fill-rule:evenodd;fill:url(#linear-gradient);}</style><linearGradient id="linear-gradient" x1="362.6" y1="149.98" x2="752.37" y2="-152" gradientTransform="matrix(1, 0, 0, -1, -44.08, 201.36)" gradientUnits="userSpaceOnUse"><stop offset="0" stop-color="#4981b5"/><stop offset="1" stop-color="#0250a4"/></linearGradient></defs><path class="cls-1" d="M731.22,194.87h74.87c7.13,0,11.5,3.22,16.23,9.49l73.57,96.92H745c-14.12,0-22.41-6-22.41-17V202.23c0-4.88,3.67-7.36,8.64-7.36M104.28,149.28V287.74c0,9.68,2.76,12.09,14.85,12.09h38.18c60.53,0,122.05-35.44,108.05-95.88-10.83-46.78-61.08-64.37-105.75-64.37H111.43C105.68,139.65,104.28,144.13,104.28,149.28ZM32.85,117.42H187.27c151.56,0,220.29,97.75,130.39,171.29-9.31,7.61-11.2,11.24-.23,11.24H481.5c36.78,0,39.51-26.16,15.1-40.39-35.68-20.83-74.41-31.7-104.71-54.94-51.22-39.27-16.1-88,75.1-88H705.54c12.53,0,17.86,5.24,17.86,14.26v32.43c0,8.76,3.38,8.85,13.8,8.85H885.56c8.4,0,13.57,5.34,18.12,11.87L980,293.88c5.17,7.47,6,8.14,12.73-.85l83.08-111.36a21.32,21.32,0,0,1,18.1-9.19h23.35L1009.2,317c-3.89,5.2-9.64,5.63-16.65,5.63H695.1c-56.62,0-63.05-19.9-63.05-57.84V153.51c0-9.88-3.45-13-13.06-13H504.28c-35,0-55.57,21.91-20.69,41.88,38.87,22.26,78.89,25.29,110.85,60.88,41.61,46.3-6.67,79.54-89.66,79.54H36.48c-22.43,0-19.77-13-19.77-27.59V134.94C16.71,121.35,24.32,117.42,32.85,117.42Z"/></svg>