<svg id="Layer_1" data-name="Layer 1" xmlns="http://www.w3.org/2000/svg" viewBox="0 0 1133.86 439.37"><defs><style>.cls-1{fill:#fff;}.cls-1,.cls-2,.cls-3{fill-rule:evenodd;}.cls-2{fill:#ec1651;}.cls-3{fill:#034ea1;}</style></defs><path class="cls-1" d="M563.22,52c64.24,0,130.24,27.57,130.24,74s-66,74-130.24,74-130.32-27.44-130.32-74S498.9,52,563.22,52Z"/><path class="cls-2" d="M651,84.84,549.92,137.26l-17.36-10.71,73.28-37.79C588.41,81.48,561.4,82,561.4,82c-82.24,3.92-80.28,44.51-80.28,44.51,0,9.59,9.17,40,80.28,43.53,86.15-2.73,90.14-46.47,78.73-59.34l26.81-14.21a44.27,44.27,0,0,1,14.55,30c.28,21.56-28.27,58.79-120.09,61.59-91.69-5.32-116.25-39.75-116.53-61.59C444.59,104.93,471.11,67,561.4,64,622.15,63.42,651,84.84,651,84.84Z"/><path class="cls-3" d="M800.05,291.65a3.23,3.23,0,0,1-3.43,3H775a3.41,3.41,0,0,1-.84-.07,4.64,4.64,0,0,1-1.33-.63c-.21-.14-36.74-36.74-36.74-36.74v34.43a3.21,3.21,0,0,1-3.36,3H711a3.21,3.21,0,0,1-3.36-3v-65a3.17,3.17,0,0,1,3.36-3h21.7a2.87,2.87,0,0,1,2.31.77L771.64,261V226.63a3.17,3.17,0,0,1,3.36-3h21.69a3.17,3.17,0,0,1,3.36,3v65ZM651.89,239.3v11.2a1.59,1.59,0,0,0,1.68,1.54H684a3.16,3.16,0,0,1,3.35,3v8.19a3.16,3.16,0,0,1-3.35,3H653.57a1.59,1.59,0,0,0-1.68,1.54V279a1.58,1.58,0,0,0,1.68,1.47h37.58a3.22,3.22,0,0,1,3.36,3.08v8.12a3.23,3.23,0,0,1-3.43,3H626.83a3.16,3.16,0,0,1-3.35-3v-65a3.16,3.16,0,0,1,3.35-3h64.32a3.17,3.17,0,0,1,3.36,3v8.05a3.28,3.28,0,0,1-3.36,3.15H653.57a1.54,1.54,0,0,0-1.68,1.47Zm-71,3.29c0-1.54-1.4-3-4.62-4.13s-8.32-1.61-13.08-1.61-10,.56-13.09,1.61-4.62,2.59-4.62,4.13v33.1c0,1.55,1.4,3,4.62,4.13s8.33,1.61,13.09,1.61,9.93-.56,13.08-1.61,4.62-2.58,4.62-4.13v-6.85a1.73,1.73,0,0,0-1.82-1.61H566.93a3.58,3.58,0,0,1-3.71-3.36v-7.56a3.52,3.52,0,0,1,3.64-3.36H605.7a3.52,3.52,0,0,1,3.64,3.36v21.62c0,12.39-24.92,17.71-46.12,17.71S517,290.32,517,277.93V240.35c0-12.39,24.92-17.71,46.2-17.71s46.12,5.32,46.12,17.71v2.24a3.46,3.46,0,0,1-3.64,3.29H584.56c-2,0-3.64-1.26-3.64-3.15v-.14Zm-78,49.06a3.23,3.23,0,0,1-3.43,3H477.9a3.41,3.41,0,0,1-.84-.07,3.9,3.9,0,0,1-1.33-.63c-.28-.14-36.74-36.74-36.74-36.74v34.43a3.23,3.23,0,0,1-3.43,3H413.93a3.23,3.23,0,0,1-3.43-3v-65a3.23,3.23,0,0,1,3.43-3h21.63a3.12,3.12,0,0,1,2.38.77L474.47,261V226.63a3.23,3.23,0,0,1,3.43-3h21.63a3.23,3.23,0,0,1,3.43,3v65ZM354.72,239.3v11.2A1.63,1.63,0,0,0,356.4,252h30.52a3.17,3.17,0,0,1,3.36,3v8.19a3.23,3.23,0,0,1-3.43,3H356.4a1.63,1.63,0,0,0-1.68,1.54V279a1.63,1.63,0,0,0,1.68,1.47H394a3.29,3.29,0,0,1,3.43,3.08v8.12a3.23,3.23,0,0,1-3.43,3H329.74a3.23,3.23,0,0,1-3.43-3v-65a3.21,3.21,0,0,1,3.36-3H394a3.23,3.23,0,0,1,3.43,3v8.05a3.34,3.34,0,0,1-3.43,3.15H356.4A1.58,1.58,0,0,0,354.72,239.3Z"/><polygon class="cls-3" points="279.42 371.44 279.28 371.44 274.59 348.27 267.73 348.27 275.22 379.07 282.78 379.07 288.73 355.62 288.8 355.62 294.32 379.07 301.67 379.07 309.51 348.27 303.21 348.27 298.24 371.44 298.17 371.44 292.79 348.27 285.37 348.27 279.42 371.44"/><path class="cls-3" d="M312.66,357.65v21.42h6.44V357.65Zm-.21-9.38v5.53h6.86v-5.53Z"/><path class="cls-3" d="M321.83,357.65v4.27h4.27v10.5c0,4.69,1.12,7.28,6.09,7.28a23.65,23.65,0,0,0,5-.63v-3.78c-.7.07-1.4.14-2,.14-2.24,0-2.66-.77-2.66-3.57v-9.94h4.83v-4.27h-4.83v-6.51l-6.44,2.31v4.2Z"/><path class="cls-3" d="M347.59,379.07V366.19c.07-3.15,1.82-4.9,3.77-4.9,3.15,0,3.85,2.59,3.85,4.9v12.88h6.44v-14a14.76,14.76,0,0,0-.49-3.36c-.77-3.15-4.9-4.69-7-4.69a7.33,7.33,0,0,0-6.57,3.22l-.07-.07v-11.9h-6.37v30.8Z"/><path class="cls-3" d="M393.15,379.07h6.44c-.14-1.33-.21-2.59-.28-3.85V357.65h-6.37v12.81c-.07,3.15-1.82,5-3.85,5-3.15,0-3.78-2.66-3.85-5V357.65h-6.37v13.86a14.06,14.06,0,0,0,.42,3.43c.77,3.15,4.9,4.76,7,4.76a7.51,7.51,0,0,0,6.65-3.29Z"/><path class="cls-3" d="M421.56,363.39c-.28-4.76-4.13-6.37-8.68-6.37-3.71,0-9.16,2-9.16,6.44,0,5,3.77,5.88,7.9,6.86,1.26.28,4.34,1,4.34,2.73s-1.33,2.38-3.08,2.38-3.36-1-3.5-2.59h-5.87c.07,4.9,4.4,6.86,9.37,6.86,4,0,9.66-2.38,9.66-7.07,0-8-12.18-6.09-12.18-9.45,0-1.4.77-1.89,2.52-1.89,1.47,0,2.8.63,2.94,2.1Z"/><polygon class="cls-3" points="447.6 372.42 447.46 372.42 442.77 357.65 435.98 357.65 444.24 379.07 441.51 387.19 447.88 387.19 458.58 357.65 452.36 357.65 447.6 372.42"/><path class="cls-3" d="M483.29,368.36c0-6.72-4.2-11.34-11.2-11.34h0v4.27h0c3.92,0,4.55,3.64,4.55,7.07s-.63,7.07-4.55,7.07h0v4.27h0C479.09,379.7,483.29,375.08,483.29,368.36ZM472.09,357c-7,0-11.12,4.62-11.12,11.34s4.12,11.34,11.12,11.34v-4.27c-3.92,0-4.55-3.71-4.55-7.07s.63-7.07,4.55-7.07Z"/><path class="cls-3" d="M502.05,379.07h6.44a36.93,36.93,0,0,1-.28-3.85V357.65h-6.37v12.81c-.14,3.15-1.89,5-3.85,5-3.15,0-3.78-2.66-3.85-5V357.65h-6.37v13.86a14.06,14.06,0,0,0,.42,3.43c.77,3.15,4.9,4.76,7,4.76a7.6,7.6,0,0,0,6.65-3.29Z"/><path class="cls-3" d="M537.6,369c0,2.45-.07,6.23-3.36,6.44v3.92a6.55,6.55,0,0,0,4-3.15h.14a20.54,20.54,0,0,0,.21,2.87h5.74a17.16,17.16,0,0,1-.28-2.38V365c0-6.44-4.83-8-9.17-8h-.63v3.64h.42a2.69,2.69,0,0,1,2.94,2.59v2a18.2,18.2,0,0,0-3.36.07v3.78A19,19,0,0,1,537.6,369Zm-3.36,6.44H534a3,3,0,0,1-3.15-3.08c0-2,1.68-2.87,3.43-3.22v-3.78a17,17,0,0,0-5,1,7.53,7.53,0,0,0-4.55,6.79c0,4.2,2.94,6.51,7,6.51a9.53,9.53,0,0,0,2.52-.35v-3.92Zm0-18.41v3.64a2.94,2.94,0,0,0-2.45,3H525.7a5.75,5.75,0,0,1,2.87-5.32A12.32,12.32,0,0,1,534.24,357Z"/><path class="cls-3" d="M548.87,357.65c.14,1.54.28,3.36.28,4.27v17.15h6.37V368.43a7,7,0,0,1,.84-3.78,4.48,4.48,0,0,1,3.15-1.61h2.73v-5.67c-3.22-.07-6,.77-7.28,4.13h-.07l-.14-3.85Z"/><path class="cls-3" d="M585.54,370a38.67,38.67,0,0,0-.14-4.06,13.58,13.58,0,0,0-1-3.85c-1.82-3.78-5.11-5.11-9.1-5.11v4.27c3.08,0,3.71,2.17,3.71,4.48h-3.71V370Zm-10.29,9.66c5,0,9.1-1.75,9.59-7.07H579.1c-.56,2-1.68,2.8-3.85,2.8Zm0-22.68h-.07c-6.5,0-10.21,4.9-10.21,11.34,0,7.21,2.94,11.34,10.21,11.34h.07v-4.27h-.07c-3.29,0-3.64-2.59-3.64-5.39h3.71v-4.27h-3.71c.07-2.31.71-4.48,3.64-4.48h.07Z"/><polygon class="cls-3" points="629.28 379.07 629.28 348.27 623.05 348.27 623.05 372.42 622.99 372.49 611.3 348.27 601.5 348.27 601.5 379.07 607.66 379.07 607.66 353.52 607.73 353.45 619.91 379.07 629.28 379.07"/><path class="cls-3" d="M648.74,379.07h6.44c-.14-1.33-.21-2.59-.28-3.85V357.65h-6.37v12.81c-.14,3.15-1.82,5-3.85,5-3.15,0-3.78-2.66-3.85-5V357.65h-6.37v13.86a14.06,14.06,0,0,0,.42,3.43c.77,3.15,4.9,4.76,7,4.76a7.51,7.51,0,0,0,6.65-3.29Z"/><path class="cls-3" d="M667,357.65h-6.3v21.42h6.37V366.19c.07-3.15,1.82-4.9,3.85-4.9,3.15,0,3.78,2.59,3.85,4.9v12.88h6.36V366.19c.07-3.15,1.83-4.9,3.85-4.9,3.15,0,3.78,2.59,3.85,4.9v12.88h6.37V366.19a12.55,12.55,0,0,0-.63-5.11c-.91-2.38-4.48-4.06-6.86-4.06-3.22,0-5.24,1.26-7.2,4.06-.92-2.38-4.41-4.06-6.86-4.06a7.33,7.33,0,0,0-6.51,3.15H667Z"/><path class="cls-3" d="M711.17,361.29c4.13,0,4.62,3.78,4.62,7.07s-.49,7.07-4.62,7.07v4.06a9.5,9.5,0,0,0,2,.21c6.23,0,9.17-5.88,9.17-11.34,0-5.74-3.36-11.34-10-11.34a3.67,3.67,0,0,0-1.19.14Zm-4.62,7.07c0-2.94,1.19-7.07,4.62-7.07v-4.13a7.11,7.11,0,0,0-4.48,2.94h-.14V348.27h-6.37V374.8c0,1.4-.14,2.87-.21,4.27h6.37a22.77,22.77,0,0,0,.21-3.08h.07a7.07,7.07,0,0,0,4.55,3.5v-4.06C707.74,375.43,706.55,371.3,706.55,368.36Z"/><path class="cls-3" d="M746.51,370a25.86,25.86,0,0,0-.21-4.06,10.15,10.15,0,0,0-1-3.85c-1.75-3.78-5.1-5.11-9.09-5.11v4.27c3.07,0,3.7,2.17,3.7,4.48h-3.7V370Zm-10.35,9.66c5,0,9.09-1.75,9.65-7.07h-5.74c-.63,2-1.68,2.8-3.91,2.8Zm0-22.68h0c-6.51,0-10.29,4.9-10.29,11.34,0,7.21,2.94,11.34,10.29,11.34h0v-4.27h0c-3.29,0-3.71-2.59-3.71-5.39h3.71v-4.27h-3.71c.14-2.31.77-4.48,3.71-4.48h0Z"/><path class="cls-3" d="M750,357.65c.07,1.54.21,3.36.21,4.27l.07,17.15h6.37V368.43a7,7,0,0,1,.84-3.78,4.46,4.46,0,0,1,3.08-1.61h2.8v-5.67c-3.22-.07-6,.77-7.28,4.13H756l-.07-3.85Z"/><path class="cls-3" d="M792.78,379.7c10.14,0,14.76-6.93,14.76-16s-4.62-16-14.76-16h0v4.76h0c6.5,0,7.69,6,7.69,11.27s-1.19,11.27-7.69,11.27h0v4.76Zm0-32.06c-10.22,0-14.84,6.93-14.84,16s4.62,16,14.84,16v-4.76c-6.58,0-7.77-6-7.77-11.27s1.19-11.27,7.77-11.27Z"/><path class="cls-3" d="M818.46,357.65h-6.37v21.42h6.44V366.19c.07-3.15,1.82-4.9,3.85-4.9,3.15,0,3.78,2.59,3.78,4.9v12.88h6.44v-14a13.94,13.94,0,0,0-.42-3.36c-.77-3.15-4.9-4.69-7.07-4.69a7.35,7.35,0,0,0-6.58,3.22l-.07-.14Z"/><path class="cls-3" d="M857.79,370a25.86,25.86,0,0,0-.21-4.06,11.61,11.61,0,0,0-1.05-3.85c-1.82-3.78-5.11-5.11-9.09-5.11v4.27c3.07,0,3.7,2.17,3.7,4.48h-3.7V370Zm-10.35,9.66c5,0,9.09-1.75,9.65-7.07h-5.74a3.56,3.56,0,0,1-3.91,2.8Zm0-22.68h0c-6.58,0-10.29,4.9-10.29,11.34,0,7.21,2.94,11.34,10.29,11.34h0v-4.27h0c-3.29,0-3.71-2.59-3.71-5.39h3.71v-4.27h-3.71c.07-2.31.77-4.48,3.71-4.48h0Z"/></svg>