<svg id="Layer_1" data-name="Layer 1" xmlns="http://www.w3.org/2000/svg" viewBox="0 0 1133.86 439.37"><defs><style>.cls-1{fill:#0b999a;}.cls-2{fill:#fff;}.cls-3{fill:#f59c25;}.cls-4{fill:#000100;fill-rule:evenodd;}</style></defs><path class="cls-1" d="M867.26,329.66v12.21h-1.19a4.66,4.66,0,0,1-3.43-1.24h-.25a6.52,6.52,0,0,1-4.41,1.44,7.75,7.75,0,1,1,0-15.49h0a10.21,10.21,0,0,1,5,1.39,11.12,11.12,0,0,0,4.62,1.49m-5.36,2.18a4.32,4.32,0,0,0-2.88-1,3.7,3.7,0,0,0,0,7.4,4.31,4.31,0,0,0,2.83-.85Zm-14.89-6.55a5,5,0,0,1-2.24,4.32l-.39.3h.49a5.7,5.7,0,0,1,4.07,5.56c0,3.37-2.68,6.25-8.29,6.25H830.78V319.14h8.88c5.26,0,7.7,2.63,7.7,5.75m-3.43,9.63c0-1.54-1.19-2.68-3.27-2.68h-5v5.41h5c2.08,0,3.27-1.09,3.27-2.73m-1.88-8.93c0-1.39-1-2.24-2.69-2.24h-3.62v4.47h3.48c1.68,0,2.68-.84,2.68-2.23M875,341.52h-5.36V329.31a16.73,16.73,0,0,0,5.71-1.64,18.51,18.51,0,0,1,5-1.24c4.37,0,5.66,2.14,5.66,5v9.93h-5.56v-8.54c0-1.73-1-2.28-2.48-2.28a8.4,8.4,0,0,0-3.18.89Zm18.86,0H888.6V320.18l5.26-1.69v13.8c2.34,0,3.23-.5,3.68-1.39a5,5,0,0,0,0-3.58h5.36a6.17,6.17,0,0,1-3,7.65h-.25l5,6.75h-6l-4-5.51H894ZM755.14,323.3h-5.36v-4.11h5.36Zm-27.25,8.19a4.32,4.32,0,0,0-2.88-1,3.7,3.7,0,0,0,0,7.4,4.27,4.27,0,0,0,2.78-.85Zm5.41-2.18v12.21h-1.19a4.68,4.68,0,0,1-3.43-1.24h-.25a6.46,6.46,0,0,1-4.41,1.44,7.75,7.75,0,1,1,0-15.49h0a10.27,10.27,0,0,1,4.71,1.39,11,11,0,0,0,4.62,1.49m82.54,12.81v-22l5.36-1.69v23.73Zm-33.55,0H777V329.71a16.74,16.74,0,0,0,5.7-1.64,18.49,18.49,0,0,1,5-1.24c4.36,0,5.66,2.13,5.66,5v9.93h-5.37v-8.54c0-1.74-1-2.28-2.48-2.28a8.13,8.13,0,0,0-3.17.89Zm-27.75-15.39v15.39h-5.21V328.17Zm11.47,4.37a3.67,3.67,0,1,0,3.52,3.82v-.15a3.28,3.28,0,0,0-2.84-3.66,3.1,3.1,0,0,0-.68,0m0,11.41c-6.16,0-8.94-3.12-8.94-7.74s2.73-7.74,8.94-7.74S775,330,775,334.57s-2.78,7.74-8.93,7.74m-25.56-11v2.92c0,3.53.79,4.07,3.27,4.07a8.47,8.47,0,0,0,2.48-.59v3.67a12.94,12.94,0,0,1-4.51.94c-5.91,0-6.65-2.73-6.65-7.34V323.45l5.36-1.68v5.41h5.95v4.12ZM712.2,342a5,5,0,0,1-3.57-1.49l-7-7L698.11,330a20.94,20.94,0,0,1-1.64-1.89h0v13.75h-5V319.48h1.68a5,5,0,0,1,3.63,1.49l7,6.95,3.47,3.47a22.66,22.66,0,0,1,1.64,1.89v-13.8h5v22.39ZM807.45,332a4.32,4.32,0,0,0-2.88-1,3.7,3.7,0,1,0,0,7.39h0a4.34,4.34,0,0,0,2.83-.84Zm5.36-2.18v12.21h-1.19a4.68,4.68,0,0,1-3.42-1.24H808a6.45,6.45,0,0,1-4.42,1.43,7.74,7.74,0,1,1,0-15.48h0a10.15,10.15,0,0,1,4.71,1.39,11.12,11.12,0,0,0,4.62,1.49m-195,12.21h-5.46V325.14c0-3.13,2.43-5.76,7.69-5.76H630v4.22h-9.93a2.35,2.35,0,0,0-2.58,1.54v3.18h11.67V333H617.5Zm34.74-9.93a16.82,16.82,0,0,0-5.45,1.29V342h-5.32V329.81a9.22,9.22,0,0,0,5.46-.65,24.29,24.29,0,0,1,5.41-2.23Zm1.49,5.71a26,26,0,0,0,6.65,1.24c1.44,0,2.39-.4,2.39-1.09s-.45-.65-.8-.85l-1.34-.44-2.53-.6a15.65,15.65,0,0,1-2.38-.84,3.77,3.77,0,0,1-2.28-3.53c0-2.87,3.27-5,7.79-5a29.11,29.11,0,0,1,6.3.84v3.48a31.89,31.89,0,0,0-5.51-.75c-1.34,0-2.28.3-2.28,1.15s.35.59.64.74a6.4,6.4,0,0,0,1.3.35c3.87.84,7.34,1.93,7.34,5s-3,5-8,5a24.51,24.51,0,0,1-7.25-1.19Zm22.59-6.3v2.92c0,3.53.79,4.07,3.22,4.07a8.4,8.4,0,0,0,2.48-.59v3.67a13.13,13.13,0,0,1-4.46.94c-5.91,0-6.65-2.73-6.65-7.34V323.5l5.41-1.68v5.41h5.51v4.12Zm-38.07-5v15.39h-5.36V328Zm0-2.83h-5.36v-4.12h5.36Z"/><path class="cls-1" d="M874.26,221.46c0-6.26-4.47-10.23-12.16-10.23h-17v20.45h17c7.69,0,12.16-3.92,12.16-10.22M883,262.55c0-7.09-5.46-12.26-14.89-12.26h-23v24.82h23c9.43,0,14.89-5,14.89-12.46m15.59-44.12a23.53,23.53,0,0,1-10.28,19.85l-1.88,1.34,2.23.9A26.14,26.14,0,0,1,907.31,266c0,15.48-12.36,28.64-38.07,28.64H821.4V192h41.84c24.17,0,35.29,12.12,35.29,26.46m-261.32,76H612.39v-76c0-14.3,11.12-26.46,35.29-26.46h48.59v19.31H648.92a10.82,10.82,0,0,0-11.71,7.15v14.49h54.15v21.34H637.21Zm162.65,0a23.5,23.5,0,0,1-16.48-6.75l-32-32.07-16-16a85.57,85.57,0,0,1-7.39-8.53l-1.14.34v63H704V192h7.65a23.45,23.45,0,0,1,16.48,6.8l32,32,16.08,16a89,89,0,0,1,7.45,8.54l.84-.25.25-63h22.78v102.5Z"/><path class="cls-2" d="M393.36,53.2A166.82,166.82,0,1,1,226.54,220,166.82,166.82,0,0,1,393.36,53.2"/><path class="cls-3" d="M253.49,220.12a139.92,139.92,0,0,1,279.79-5.28q0,2.64,0,5.28a124.09,124.09,0,0,1-.7,14.29,143.94,143.94,0,0,1-278.39,0,124.09,124.09,0,0,1-.7-14.29"/><path class="cls-4" d="M381.65,256.05l-6.6-6.6a151.2,151.2,0,0,0-41.7-6.6l46.91,46.9,1.39-33.7M348.34,222.8,318.56,193a212.89,212.89,0,0,0-25.11-1.54,195.39,195.39,0,0,0-45.66,5c.44-2.83,1-5.61,1.53-8.29a200.83,200.83,0,0,1,79.81-21.84l7.45,7.6,9.93,9.92a163.79,163.79,0,0,1,70.87-16c-1.39-1.83-2.83-3.77-4.22-5.61-5-.29-9.53-.54-14.44-.54a161,161,0,0,0-47.6,7L342,159.56c-6.35-.54-12.81-1-19.36-1A201.9,201.9,0,0,0,255,169c1.14-2.92,2.24-5.6,3.38-8.43a201.5,201.5,0,0,1,56.18-28.64l-4.22-4.37a185.3,185.3,0,0,1,134.36-12.66,213.35,213.35,0,0,1,16.73,18.82c1.68-1.3,3.47-2.39,5.46-3.68a201.92,201.92,0,0,1,61.59,30.48c1.14,2.83,2.24,5.46,3.38,8.44A203,203,0,0,0,478,158.67c2,3.67,3.92,7.15,5.6,11A196.72,196.72,0,0,1,537.5,188.3c.59,2.68,1.14,5.46,1.53,8.29a196,196,0,0,0-45.61-5h-.84c1.24,3.52,2.38,7.05,3.52,10.67a198.24,198.24,0,0,1,44.67,13.2v5.91a193.7,193.7,0,0,0-22.33-1.24,202.7,202.7,0,0,0-42.54,4.46c-4.47-2.92-9.13-5.9-13.9-8.58L434.21,244l-28.09,28.09,2.68,69.09a139.75,139.75,0,0,1-15.44.85,134.39,134.39,0,0,1-15.14-.85L379.51,312l.4-11.07-57.82-57.87H321a167.59,167.59,0,0,0-30.63,4.51,63.31,63.31,0,0,1-2.93-6.89A154.47,154.47,0,0,1,310,230.74l-8-8c-2.53-.4-5-.85-7.59-1.14s-5.76-.7-8.59-1c-5.75-.39-11.51-.69-17.42-.69a193.7,193.7,0,0,0-22.33,1.24v-5.91a198.47,198.47,0,0,1,65.46-15.58l24.57,24.57c4.07-.7,8.14-1.24,12.21-1.54m63.48-22.49,27.25,27.1,15.44-15.43a144.8,144.8,0,0,0-44.67-13.45Zm21.49,32.86-39.7-39.71-2.14-2a145.9,145.9,0,0,0-44.37,18.51l12.76,12.76A97.83,97.83,0,0,1,378,223a147.64,147.64,0,0,1,5,22.48l19,19.26Z"/><path class="cls-1" d="M254.59,233.87a143.19,143.19,0,0,0,277.54,0c2.83-.45,5.61-.7,8.29-1a147.61,147.61,0,0,1-294.12,0c2.68.3,5.46.55,8.29,1"/></svg>