<svg id="Layer_1" data-name="Layer 1" xmlns="http://www.w3.org/2000/svg" viewBox="0 0 1133.86 439.37"><defs><style>.cls-1{fill:#fff;}.cls-2{fill:#c80f2e;}.cls-3{fill:#1d4289;}</style></defs><path d="M391.19,59.22h-4.13l-26.6.07L330.17,377.81H374.1l3.32-62h25.83l3.92,62h46L422.86,59.29ZM379.63,274.7l9.66-180.15L400.66,274.7Z"/><path d="M960.63,59.29,929,59.22h-4.12l-26.6.07-30.3,318.52h43.93l3.33-62H941l3.91,62h46ZM917.4,274.7l9.67-180.15L938.44,274.7Z"/><rect x="686.7" y="59.21" width="43.44" height="318.6"/><path d="M640.48,264.71h0a55.27,55.27,0,0,0,29.76-49V112.25a53,53,0,0,0-53-53H560v318.6h43.4V270.94h6.72l17.26,106.87,45.2-.05-15-81.67A57.32,57.32,0,0,0,640.48,264.71Zm-37-164.5h10.28a13.09,13.09,0,0,1,13.1,13.09V219a13.1,13.1,0,0,1-13.1,13.1H603.44Z"/><polygon points="467.99 59.21 461.15 59.21 461.15 377.81 505.28 377.81 505.28 232.7 539.14 232.7 539.14 197.25 505.28 197.25 505.28 100.21 545.55 100.21 545.55 59.21 505.28 59.21 467.99 59.21"/><path d="M813.62,56.43H794a45.17,45.17,0,0,0-45.17,45.17V334.46A45.16,45.16,0,0,0,794,379.62h19.58a45.16,45.16,0,0,0,45.16-45.16V248.83H816.14v77.74a12.32,12.32,0,1,1-24.63,0V109.74a12.32,12.32,0,1,1,24.63,0V193.2h42.64V101.6A45.16,45.16,0,0,0,813.62,56.43Z"/><g id="g3029"><path id="rect2987" class="cls-1" d="M177.31,52h78.48a34.29,34.29,0,0,1,34.38,34.23V351.68a34.31,34.31,0,0,1-34.24,34.38H177.31a34.3,34.3,0,0,1-34.38-34.23V86.34A34.29,34.29,0,0,1,177.15,52Z"/><path id="path2989" class="cls-2" d="M236.29,113.2l.11,1.13c2.37,1.4,3.61,2.53,6,4.09,6.35,4,14.14,11.19,13.19,35.79,1.83,5.38,2.64,15.87,4.25,19.21,3.26,6.62,5.54,10.92,6.52,17.11,0,0,1,9.69,2.21,10.39,6.56,1.5,4.68,2.17,5.59,3.34S279,205.49,279,209a21.17,21.17,0,0,1,3.07,5.49V86.61a26.47,26.47,0,0,0-26.4-26.5H230.43c4,1.46,6.35,3.18,7.7,5.87,3.22.27,7.07,7.54,1.08,18.35,2.64,1.83.59,4.52-1.29,7.61-.59,1-1.19,2.72-3,2.64-2.37,4.9-5.11,9.53-7.21,9.79-.59.75-1,2.85-.11,3.81,3.07,1.4,6.78,3.23,8.66,5Z"/><path id="path2991" class="cls-2" d="M259.87,377.54l-.27.06c11.57-7.08,4.41-20.4,2.2-28.29l.43-1.34c.6-1.09-.64-3.61-.64-3.61-1.45-1.18-1.78-7.75-2.53-10.76-1.24-4.9,2.18-13.45,2.18-16.36s-2.18-6.89-6.19-12c-1-1.13-3.87-25.94-6.46-32.24-3.6-8.66-4.68-7.26-9-17.65-3.27-7.26-.71-18-8.13-42.83l1.67-1.57s-5.92-21.58-7.83-27.5-5.38-6.29-5.38-6.29l.21-3.07c.27-.92,7.21-19,7.81-19.54,0-.37,10-7.21,10.17-6.19.8,4.42,4.67,26.86,6.34,30.41s7.43,14.58,10.07,21.42a23.59,23.59,0,1,0,27.63,31.59l-.06,119.63a26.23,26.23,0,0,1-22.22,26.11Z"/><path id="path2993" class="cls-3" d="M222.14,60.11c-8.61,3.34-9.79,7.08-10.12,19-1.45.16-4.46-1.24-3.44,6,0,0,.55,4.84,2.48,4-1.51,10.54-.31,13.18-7.32,13.93-1.51.16-3.34.27-5.6.38l-.7,1c-9.58.91-14.32.3-20.5,8.45a88.26,88.26,0,0,0-8,13.83s-2.86,7.07-3.72,10c-2.74,5.76-9.46,18.49-11.46,26.7-.64,2.79-1.88,3.66-.1,7.69,2.63,5.81-1.73,7.32,13.23,6.89v3.44s-4,3.45-4.84,5.5-3.12,12.37-3,17.27c.27,12.76,10.65,23.39,13.72,36.11l6.94,1c3.77,8.68,20.24,32.07,24.06,35.8l.16.17c.86,2.21,5.11,4.95,7.61,7.69a174,174,0,0,0,17.71,16.15,98.49,98.49,0,0,0,10.88,7.43c-.11-.06,2.26,4.68,3.44,8.55-4.73,3.81,4.46,10.82,7.27,22.39.16,1.56-2.7,3.12,1.56,6.94-.28,17.49-5.6,26.65,3.33,31.48H176.94a26.5,26.5,0,0,1-25.89-26.42V86.61a26.48,26.48,0,0,1,25.89-26.5Z"/></g></svg>