<svg id="Layer_1" data-name="Layer 1" xmlns="http://www.w3.org/2000/svg" viewBox="0 0 1133.86 439.37"><defs><style>.cls-1{fill:#00abbd;stroke:#00abbd;}.cls-1,.cls-10,.cls-11,.cls-12,.cls-13,.cls-14,.cls-2,.cls-3,.cls-4,.cls-5,.cls-6,.cls-7,.cls-8,.cls-9{stroke-miterlimit:3.86;stroke-width:1.67px;}.cls-1,.cls-10,.cls-11,.cls-12,.cls-13,.cls-14,.cls-15,.cls-2,.cls-3,.cls-4,.cls-5,.cls-6,.cls-7,.cls-8,.cls-9{fill-rule:evenodd;}.cls-2{fill:#007196;stroke:#007196;}.cls-3{fill:#50b848;stroke:#50b848;}.cls-4{fill:#448d46;stroke:#448d46;}.cls-5{fill:#fdb933;stroke:#fdb933;}.cls-6{fill:#e28f38;stroke:#e28f38;}.cls-7{fill:#f37021;stroke:#f37021;}.cls-8{fill:#cc6b39;stroke:#cc6b39;}.cls-9{fill:#ed1c24;stroke:#ed1c24;}.cls-10{fill:#b82837;stroke:#b82837;}.cls-11{fill:#ec008c;stroke:#ec008c;}.cls-12{fill:#932784;stroke:#932784;}.cls-13{fill:#5f6db3;stroke:#5f6db3;}.cls-14{fill:#414099;stroke:#414099;}.cls-15,.cls-16{fill:#231f20;}.cls-17{fill:#fff;}</style></defs><polygon class="cls-1" points="549.73 246.64 293.04 178.69 288.01 144.29 549.73 246.64"/><polygon class="cls-2" points="549.73 246.64 288.01 144.29 352.6 138.41 549.73 246.64"/><polygon class="cls-3" points="558.12 244.96 363.51 130.87 374.41 94.8 558.12 244.96"/><polygon class="cls-4" points="558.12 244.96 374.41 94.8 428.1 99.83 558.12 244.96"/><polygon class="cls-5" points="562.31 244.12 444.04 96.48 469.2 65.44 562.31 244.12"/><polygon class="cls-6" points="562.31 244.12 469.2 65.44 511.14 81.38 562.31 244.12"/><polygon class="cls-7" points="567.35 244.12 526.24 81.38 566.51 52.02 567.35 244.12"/><polygon class="cls-8" points="567.35 244.12 608.45 79.7 566.51 52.02 567.35 244.12"/><polygon class="cls-9" points="570.71 243.27 623.55 83.06 665.49 63.76 570.71 243.27"/><polygon class="cls-10" points="570.71 243.27 665.49 63.76 693.18 96.48 570.71 243.27"/><polygon class="cls-11" points="575.74 244.96 705.76 101.51 760.28 94.8 575.74 244.96"/><polygon class="cls-12" points="575.74 244.96 773.7 131.7 760.28 94.8 575.74 244.96"/><polygon class="cls-13" points="582.45 246.64 782.93 139.26 845.85 144.29 582.45 246.64"/><polygon class="cls-14" points="582.45 246.64 845.85 144.29 842.49 181.2 582.45 246.64"/><polygon class="cls-15" points="336.12 359.85 336.12 386.25 339.62 386.25 339.62 372.62 339.7 372.62 344.64 386.25 348.66 386.25 343.06 372.62 348.24 359.85 344.64 359.85 339.77 372.62 339.66 372.62 339.62 359.85 336.12 359.85"/><path class="cls-15" d="M382.39,359.85l-5.75,26.4h3.42l1-5.15h5.27l1,5.15h3.53l-5.67-26.4Zm3.35,18.52h-4.21L383.64,365h.07l1.34,9.59Z"/><polygon class="cls-15" points="420.81 359.85 420.81 386.25 430.19 386.25 430.19 383.2 424.31 383.2 424.31 359.85 420.81 359.85"/><polygon class="cls-15" points="460.06 359.85 460.06 386.25 469.48 386.25 469.48 383.2 463.56 383.2 463.56 374.24 468.86 374.24 468.86 371.19 463.56 371.19 463.56 362.89 469.48 362.89 469.48 359.85 460.06 359.85"/><rect class="cls-16" x="499.88" y="359.85" width="3.5" height="26.41"/><path class="cls-15" d="M535.32,359.85v26.4h2.42c6.26,0,10.33-.56,10.33-12.75,0-13.37-4.69-13.65-8.83-13.65Zm9,13.65c0,4.46.24,9.94-5.58,9.77V362.82c6-.35,5.58,6.61,5.58,10.68Z"/><path class="cls-15" d="M585.51,359.49c-6.8,0-6.87,8.8-6.87,13.55s.07,13.56,6.87,13.56,6.87-8.8,6.87-13.56S592.3,359.49,585.51,359.49Zm0,3.34c2.77,0,3.14,4.65,3.14,10.26s-.37,10.27-3.14,10.27-3.15-4.66-3.15-10.27.38-10.3,3.15-10.3Z"/><path class="cls-15" d="M631.79,360.37a7,7,0,0,0-3.71-.88c-4,0-5.91,3.05-5.91,6.77,0,6.93,7.38,8,7.38,13.23,0,2-.9,3.68-3.07,3.68a5.64,5.64,0,0,1-3.47-1.38v3.55a6.19,6.19,0,0,0,3.84,1.26c3.89,0,6.21-3.19,6.21-6.9s-1.37-5.33-3.75-7.74l-2.66-2.91a4.33,4.33,0,0,1-1-2.87,3.16,3.16,0,0,1,3-3.34h.15a4.8,4.8,0,0,1,3,1.12Z"/><path class="cls-15" d="M673.92,360.26a5.45,5.45,0,0,0-3-.77c-7.18,0-7.8,8.68-7.8,14,0,5.57.95,13.13,8.09,13.13a4.93,4.93,0,0,0,2.8-.74v-3.08a4.25,4.25,0,0,1-2.09.53c-4.81,0-5.09-6.59-5.09-10.09,0-3.34,0-10.43,4.94-10.43a5,5,0,0,1,2.23.66Z"/><path class="cls-15" d="M710.49,359.49c-6.8,0-6.87,8.8-6.87,13.55s.07,13.56,6.87,13.56,6.85-8.8,6.85-13.56S717.28,359.49,710.49,359.49Zm0,3.34c2.76,0,3.14,4.65,3.14,10.26s-.38,10.27-3.14,10.27-3.16-4.66-3.16-10.27.38-10.3,3.16-10.3Z"/><path class="cls-15" d="M752.12,386.25v-11.7c5.46.21,7.56-2.23,7.56-7.64,0-6.78-3.85-7.06-6.87-7.06h-4.2v26.4Zm.49-23.4c2.66,0,3.35,2,3.35,4.36,0,3-.84,4.6-3.85,4.39v-8.75Z"/><polygon class="cls-15" points="789.87 359.85 789.87 386.25 799.28 386.25 799.28 383.2 793.37 383.2 793.37 374.24 798.66 374.24 798.66 371.19 793.37 371.19 793.37 362.89 799.28 362.89 799.28 359.85 789.87 359.85"/><path class="cls-15" d="M309.28,270.55l17.12-11.43h11.31v10.82l13.37-10.82h12.66V325H350.48l-.38-58.2-12.39,9.82s-1.25,35.8-.36,48.21l-13.49.17V267.38l-13.94,9.51.52,48.13H296.61V259.15h12.67Z"/><path class="cls-15" d="M594.51,271.18h-4.46v-6.35H575.4l.3,55.84c5.07,1.42,10.56.79,13.1-4.46v-5.68h5.07c1.43,6.35-2.54,11.42-7.61,14l-24.08.63.48-58.85c6.49-10.46,21.62-5.66,31.85-6.42Z"/><polygon class="cls-15" points="396.75 318.73 396.75 318.73 411.97 308.58 411.97 271.19 424 271.19 424 325.06 411.97 325.06 411.97 314.29 395.41 325.04 384.7 325.06 384.7 271.19 396.75 271.19 396.75 318.73"/><polygon class="cls-15" points="458.86 321.26 473.44 321.3 473.44 325.06 446.19 325.06 446.19 271.19 458.86 271.19 458.86 321.26"/><polygon class="cls-15" points="515.27 274.99 501.33 274.99 501.29 325.06 488.66 325.06 488.66 275.09 473.44 274.99 473.44 271.19 515.27 271.19 515.27 274.99"/><rect class="cls-16" x="527.95" y="271.18" width="12.67" height="53.87"/><polygon class="cls-15" points="621.75 294.64 636.33 284.49 636.33 271.19 649.01 271.19 649.01 325.06 636.33 325.06 636.33 290.84 621.75 300.97 621.75 325.06 609.08 325.06 609.08 271.19 621.75 271.19 621.75 294.64"/><path class="cls-15" d="M709.85,276.26V320c-7.44,9-22.81,4-33.59,4.45-2.23-.46-4.91-1.27-5.7-3.8V276.28c7.93-9,23.61-4,34.86-4.46A10,10,0,0,1,709.85,276.26Z"/><rect class="cls-16" x="732.04" y="271.18" width="12.67" height="53.87"/><path class="cls-15" d="M794.16,281.33H789.7v-5.71c-3-1.11-6.82-.48-10.14-.63l-.64,45.63c2.23,1.12,5.07.48,7.6.64,3.49-1.91,3.35-5.39,3.18-8.92h3.8c.79,5.07-.48,10.45-5.71,12H766.27c.47-16.48-1.12-33.76,1.27-49.44,6-7,18.75-4.54,26.62-3.8Z"/><polygon class="cls-15" points="837.25 274.35 823.31 274.35 822.67 292.1 834.09 292.06 834.09 295.91 823.31 295.91 822.67 321.26 837.25 321.44 837.25 325.06 810 325.06 810 271.19 837.25 271.19 837.25 274.35"/><rect class="cls-17" x="683.87" y="275.62" width="13.31" height="45.64"/></svg>